<svg xmlns="http://www.w3.org/2000/svg" xmlns:xlink="http://www.w3.org/1999/xlink" width="100" height="100" viewBox="0 0 100 100"><circle stroke="none" fill="#9AFF68" r="48%" cx="50%" cy="50%"></circle><g transform="translate(50 50) scale(0.69 0.69) rotate(-30) translate(-50 -50)" style="fill:#0073E6"><svg fill="#0073E6" xmlns="http://www.w3.org/2000/svg" xmlns:xlink="http://www.w3.org/1999/xlink" version="1.1" x="0px" y="0px" viewBox="0 0 100 100" style="enable-background:new 0 0 100 100;" xml:space="preserve"><g><g><path d="M60,12.4c-1.2-1.2-2.8-1.9-4.5-1.9c-1.7,0-3.3,0.7-4.5,1.9c-2.5,2.5-2.5,6.5,0,9c1.2,1.2,2.8,1.9,4.5,1.9    c1.7,0,3.3-0.7,4.5-1.9c1.2-1.2,1.9-2.8,1.9-4.5C61.9,15.2,61.2,13.6,60,12.4z"></path><path d="M71.1,32.4c1.2-1.2,1.9-2.8,1.9-4.5s-0.7-3.3-1.9-4.5c-1.2-1.2-2.8-1.9-4.5-1.9c-1.7,0-3.3,0.7-4.5,1.9    c-2.5,2.5-2.5,6.5,0,9c1.2,1.2,2.8,1.9,4.5,1.9C68.3,34.3,69.9,33.6,71.1,32.4z"></path><path d="M73.1,43.5c1.2,1.2,2.8,1.9,4.5,1.9c1.7,0,3.3-0.7,4.5-1.9c2.5-2.5,2.5-6.5,0-9c-1.2-1.2-2.8-1.9-4.5-1.9    c-1.7,0-3.3,0.7-4.5,1.9C70.6,36.9,70.6,41,73.1,43.5z"></path><path d="M93.1,45.5c-1.2-1.2-2.8-1.9-4.5-1.9c-1.7,0-3.3,0.7-4.5,1.9c-2.5,2.5-2.5,6.5,0,9c1.2,1.2,2.8,1.9,4.5,1.9    c1.7,0,3.3-0.7,4.5-1.9C95.6,52,95.6,48,93.1,45.5z"></path><path d="M55.5,32.6c-1.7,0-3.3,0.7-4.5,1.9c-2.5,2.5-2.5,6.5,0,9c1.2,1.2,2.8,1.9,4.5,1.9c1.7,0,3.3-0.7,4.5-1.9    c1.2-1.2,1.9-2.8,1.9-4.5c0-1.7-0.7-3.3-1.9-4.5C58.8,33.3,57.2,32.6,55.5,32.6L55.5,32.6z"></path><path d="M66.6,43.6c-1.7,0-3.3,0.7-4.5,1.9c-1.2,1.2-1.9,2.8-1.9,4.5c0,1.7,0.7,3.3,1.9,4.5c1.2,1.2,2.8,1.9,4.5,1.9    c1.7,0,3.3-0.7,4.5-1.9c1.2-1.2,1.9-2.8,1.9-4.5c0-1.7-0.7-3.3-1.9-4.5C69.9,44.3,68.3,43.6,66.6,43.6L66.6,43.6z"></path><path d="M73.1,65.5c1.2,1.2,2.8,1.9,4.5,1.9c1.7,0,3.3-0.7,4.5-1.9c2.5-2.5,2.5-6.5,0-9c-1.2-1.2-2.8-1.9-4.5-1.9    c-1.7,0-3.3,0.7-4.5,1.9C70.6,59,70.6,63.1,73.1,65.5z"></path><path d="M37.9,43.5c1.2-1.2,1.9-2.8,1.9-4.5c0-1.7-0.7-3.3-1.9-4.5c-1.2-1.2-2.8-1.9-4.5-1.9c-1.7,0-3.3,0.7-4.5,1.9    c-1.2,1.2-1.9,2.8-1.9,4.5c0,1.7,0.7,3.3,1.9,4.5c1.2,1.2,2.8,1.9,4.5,1.9C35.1,45.3,36.7,44.7,37.9,43.5z"></path><path d="M44.5,43.6c-1.7,0-3.3,0.7-4.5,1.9c-2.5,2.5-2.5,6.5,0,9c1.2,1.2,2.8,1.9,4.5,1.9c1.7,0,3.3-0.7,4.5-1.9    c1.2-1.2,1.9-2.8,1.9-4.5c0-1.7-0.7-3.3-1.9-4.5C47.8,44.3,46.2,43.6,44.5,43.6L44.5,43.6z"></path><path d="M55.5,54.7c-1.7,0-3.3,0.7-4.5,1.9c-1.2,1.2-1.9,2.8-1.9,4.5c0,1.7,0.7,3.3,1.9,4.5c1.2,1.2,2.8,1.9,4.5,1.9    c1.7,0,3.3-0.7,4.5-1.9c1.2-1.2,1.9-2.8,1.9-4.5c0-1.7-0.7-3.3-1.9-4.5C58.8,55.3,57.2,54.7,55.5,54.7L55.5,54.7z"></path><path d="M62.1,67.6c-1.2,1.2-1.9,2.8-1.9,4.5c0,1.7,0.7,3.3,1.9,4.5c1.2,1.2,2.8,1.9,4.5,1.9c1.7,0,3.3-0.7,4.5-1.9    c1.2-1.2,1.9-2.8,1.9-4.5c0-1.7-0.7-3.3-1.9-4.5c-1.2-1.2-2.8-1.9-4.5-1.9C64.9,65.7,63.3,66.4,62.1,67.6z"></path><path d="M15.9,34.5c-1.2-1.2-2.8-1.9-4.5-1.9c-1.7,0-3.3,0.7-4.5,1.9c-2.5,2.5-2.5,6.5,0,9c1.2,1.2,2.8,1.9,4.5,1.9    c1.7,0,3.3-0.7,4.5-1.9C18.3,41,18.3,36.9,15.9,34.5z"></path><path d="M26.9,45.5c-1.2-1.2-2.8-1.9-4.5-1.9c-1.7,0-3.3,0.7-4.5,1.9c-2.5,2.5-2.5,6.5,0,9c1.2,1.2,2.8,1.9,4.5,1.9    c1.7,0,3.3-0.7,4.5-1.9c1.2-1.2,1.9-2.8,1.9-4.5C28.8,48.3,28.1,46.7,26.9,45.5z"></path><path d="M28.9,65.5c1.2,1.2,2.8,1.9,4.5,1.9c1.7,0,3.3-0.7,4.5-1.9c2.5-2.5,2.5-6.5,0-9c-1.2-1.2-2.8-1.9-4.5-1.9    c-1.7,0-3.3,0.7-4.5,1.9C26.5,59,26.5,63.1,28.9,65.5z"></path><path d="M51,87.6c1.2,1.2,2.8,1.9,4.5,1.9c1.7,0,3.3-0.7,4.5-1.9c2.5-2.5,2.5-6.5,0-9c-1.2-1.2-2.8-1.9-4.5-1.9    c-1.7,0-3.3,0.7-4.5,1.9C48.5,81.1,48.5,85.1,51,87.6z"></path><path d="M6.9,65.5c1.2,1.2,2.8,1.9,4.5,1.9c1.7,0,3.3-0.7,4.5-1.9c1.2-1.2,1.9-2.8,1.9-4.5c0-1.7-0.7-3.3-1.9-4.5    c-1.2-1.2-2.8-1.9-4.5-1.9c-1.7,0-3.3,0.7-4.5,1.9C4.4,59,4.4,63.1,6.9,65.5z"></path></g></g></svg></g></svg>